# xmcd
#
# Track frame offsets:
#	150
#	10430
#	20120
#	30207
#	42627
#	52550
#	64377
#	76350
#	88420
#	101467
#	113532
#	125110
#	135920
#	147432
#	160745
#	174370
#	186115
#	200612
#	210530
#	221657
#	230535
#	242552
#	255622
#	267397
#	276827
#	286247
#	298920
#	308682
#	321427
#
# Disc length: 4429 seconds
#
# Revision: 1
# Processed by: cddbd v1.4PL0 Copyright (c) Steve Scherf et al.
# Submitted via: audiograbber 1.82.02
#
DISCID=af114b1d
DTITLE=Various Artist - St. Louis Blues Review
DYEAR=1900
DGENRE=
TTITLE0=Oliver Sain - Hucklebuck Twist
TTITLE1=Fontella Bass - Honey Bee
TTITLE2=Fontella Bass - Fontella Bass
TTITLE3=Fontella Bass - Brand New Love
TTITLE4=Fontella Bass - I Don't Hurt Anyone
TTITLE5=Clayton Love - Limited Love
TTITLE6=Clayton Love - Unlimited Love
TTITLE7=Clayton Love - Bye Bye Baby
TTITLE8=Clayton Love - Mistreated
TTITLE9=Clayton Love - It's You
TTITLE10=Clayton Love - Year After Year
TTITLE11=Walter  Westbrook - Walter  Westbrook
TTITLE12=Walter  Westbrook - Midnight Jump
TTITLE13=Little Milton - That Will Never Do
TTITLE14=Little Milton - I'm A Lonely Man
TTITLE15=Little Milton - Long Distance Operator
TTITLE16=Little Milton - I Found Me A New Love
TTITLE17=Little Milton - I'm Tryin'
TTITLE18=Little Milton - Strange Dreams
TTITLE19=Little Milton - Hold Me Tight
TTITLE20=Little Milton - (I Have The) Same Old Blues
TTITLE21=Little Milton - Dead Love
TTITLE22=Little Milton - My Baby Pleases Me
TTITLE23=Little Milton - Let It Be Known (alternate take)
TTITLE24=Little Milton - Hey, Girl!
TTITLE25=Little Milton - Cross My Heart
TTITLE26=Little Milton - I'm In Love
TTITLE27=Little Milton - My Mind Is Troubled
TTITLE28=Oliver Sain - Harlem Nocturne
EXTD=
EXTT0=
EXTT1=
EXTT2=
EXTT3=
EXTT4=
EXTT5=
EXTT6=
EXTT7=
EXTT8=
EXTT9=
EXTT10=
EXTT11=
EXTT12=
EXTT13=
EXTT14=
EXTT15=
EXTT16=
EXTT17=
EXTT18=
EXTT19=
EXTT20=
EXTT21=
EXTT22=
EXTT23=
EXTT24=
EXTT25=
EXTT26=
EXTT27=
EXTT28=
PLAYORDER=
